P3
38 36
255
254 254 254 
253 252 252 
250 250 250 
255 254 254 
254 254 254 
255 254 254 
249 248 248 
248 248 248 
254 254 254 
249 248 248 
254 254 254 
250 250 250 
255 254 254 
250 250 250 
250 250 250 
255 254 254 
250 254 254 
249 250 254 
252 248 254 
254 248 254 
255 234 254 
254 242 254 
255 244 252 
254 246 242 
255 252 240 
255 254 236 
254 254 236 
252 254 240 
248 254 246 
249 254 252 
255 254 254 
255 252 254 
255 248 240 
255 250 238 
254 246 240 
252 254 252 
253 254 254 
250 254 254 
242 242 242 
255 254 254 
240 240 240 
254 254 254 
255 254 254 
250 250 250 
254 254 254 
255 254 254 
255 254 254 
255 254 254 
254 254 254 
248 248 248 
232 232 232 
255 254 254 
250 250 250 
238 238 240 
251 254 254 
250 254 254 
255 252 254 
254 250 254 
254 238 254 
254 244 254 
255 248 254 
254 250 250 
255 254 244 
255 254 240 
252 254 240 
250 254 244 
249 254 250 
250 254 254 
254 254 254 
254 252 254 
254 250 246 
254 252 244 
254 250 248 
254 254 254 
254 254 254 
252 254 254 
254 254 254 
236 236 236 
4 4 4 
0 0 0 
0 0 0 
0 0 0 
12 12 12 
0 0 0 
0 0 0 
0 0 0 
0 0 0 
4 4 4 
20 20 20 
236 236 236 
252 252 252 
254 254 252 
248 254 250 
246 254 248 
254 254 254 
252 254 254 
250 254 254 
250 254 254 
250 254 254 
250 254 254 
246 254 250 
244 254 246 
242 254 246 
244 254 248 
248 252 252 
250 252 254 
252 250 254 
248 252 254 
244 254 254 
244 254 254 
252 254 254 
254 252 254 
254 252 254 
254 252 254 
254 254 254 
254 254 254 
0 0 0 
4 4 4 
10 10 10 
2 2 2 
6 6 6 
0 0 0 
0 0 0 
0 0 0 
0 0 0 
0 0 0 
0 0 0 
254 254 254 
254 254 254 
254 254 250 
250 254 244 
250 254 244 
248 254 248 
238 252 252 
230 254 254 
224 254 254 
226 254 254 
220 254 254 
230 254 254 
228 254 254 
226 254 254 
230 254 254 
240 254 254 
244 254 254 
240 254 254 
232 254 254 
218 254 254 
212 254 254 
246 254 254 
248 242 252 
254 246 254 
254 248 250 
252 252 252 
254 254 254 
8 8 8 
0 0 0 
0 0 0 
0 0 0 
0 0 0 
16 16 16 
4 4 4 
0 0 0 
14 14 14 
4 4 4 
2 2 2 
254 254 254 
254 254 254 
242 244 238 
250 252 238 
250 254 240 
250 254 254 
234 254 254 
202 254 254 
190 254 254 
196 254 254 
198 254 254 
198 254 254 
196 254 254 
192 254 254 
198 254 254 
216 254 254 
220 254 254 
210 254 254 
200 254 254 
188 254 254 
196 254 254 
238 254 254 
254 250 254 
254 250 254 
254 244 244 
254 254 254 
254 254 254 
2 2 2 
0 0 0 
12 12 12 
14 14 14 
0 0 0 
0 0 0 
4 4 4 
0 0 0 
0 0 0 
0 0 0 
0 0 0 
248 248 248 
254 254 254 
254 254 250 
254 254 246 
254 254 250 
252 254 254 
212 248 254 
84 182 194 
42 168 184 
42 164 192 
50 166 206 
50 164 206 
48 166 206 
40 170 204 
46 166 200 
68 156 198 
72 154 198 
58 162 198 
46 168 194 
38 170 188 
68 170 186 
204 236 254 
244 232 252 
254 248 254 
254 248 244 
254 254 254 
254 254 254 
4 4 4 
0 0 0 
0 0 0 
0 0 0 
0 0 0 
2 2 2 
0 0 0 
2 2 2 
0 0 0 
6 6 6 
8 8 8 
252 252 252 
254 254 254 
254 250 250 
254 244 244 
254 248 254 
254 252 254 
218 254 254 
46 168 192 
14 174 206 
18 174 222 
24 178 236 
22 176 238 
16 178 238 
4 184 236 
12 182 232 
36 170 228 
38 168 226 
18 180 226 
10 184 218 
14 184 206 
58 182 202 
226 254 254 
254 248 254 
254 246 252 
254 244 240 
252 252 252 
254 254 254 
0 0 0 
0 0 0 
12 12 12 
0 0 0 
10 10 10 
0 0 0 
0 0 0 
8 8 8 
0 0 0 
2 2 2 
0 0 0 
254 254 254 
254 254 254 
254 252 254 
254 250 254 
254 248 254 
248 246 254 
218 254 254 
36 172 204 
16 194 232 
10 186 242 
4 176 244 
4 178 250 
0 180 250 
0 188 248 
0 186 246 
18 172 240 
18 172 236 
0 184 234 
0 190 226 
0 180 204 
40 176 198 
222 254 254 
254 248 254 
254 246 252 
254 236 234 
254 254 254 
254 254 254 
0 0 0 
4 4 4 
2 2 2 
0 0 0 
0 0 0 
0 0 0 
0 0 0 
2 2 2 
0 0 0 
8 8 8 
0 0 0 
254 254 254 
254 254 254 
254 252 252 
254 250 254 
254 248 254 
248 246 254 
218 254 254 
36 172 204 
16 194 232 
10 186 242 
4 176 244 
4 178 250 
0 180 250 
0 188 248 
0 186 246 
18 172 240 
18 172 236 
0 184 234 
0 190 226 
0 180 204 
40 176 198 
222 254 254 
254 248 254 
254 246 252 
254 236 234 
252 252 252 
254 254 254 
0 0 0 
4 4 4 
0 0 0 
0 0 0 
6 6 6 
6 6 6 
4 4 4 
0 0 0 
8 8 8 
6 6 6 
8 8 8 
244 244 244 
254 254 254 
254 254 254 
254 244 244 
254 248 254 
254 252 254 
218 254 254 
46 168 192 
14 174 206 
18 174 222 
24 178 236 
22 176 238 
16 178 238 
4 184 236 
12 182 232 
36 170 228 
38 168 226 
18 180 226 
10 184 218 
14 184 206 
58 182 202 
226 254 254 
254 248 254 
254 246 252 
254 244 240 
250 250 250 
254 254 254 
0 0 0 
0 0 0 
0 0 0 
0 0 0 
0 0 0 
0 0 0 
0 0 0 
0 0 0 
2 2 2 
0 0 0 
0 0 0 
250 250 250 
254 254 254 
254 254 250 
254 254 246 
254 254 250 
252 254 254 
212 248 254 
84 182 194 
42 168 184 
42 164 192 
50 166 206 
50 164 206 
48 166 206 
40 170 204 
46 166 200 
68 156 198 
72 154 198 
58 162 198 
46 168 194 
38 170 188 
68 170 186 
204 236 254 
244 232 252 
254 248 254 
254 248 244 
254 254 254 
254 254 254 
0 0 0 
4 4 4 
4 4 4 
8 8 8 
0 0 0 
0 0 0 
2 2 2 
10 10 10 
0 0 0 
0 0 0 
0 0 0 
254 254 254 
252 252 252 
242 244 238 
250 252 238 
250 254 240 
250 254 254 
234 254 254 
202 254 254 
190 254 254 
196 254 254 
198 254 254 
198 254 254 
196 254 254 
192 254 254 
198 254 254 
216 254 254 
220 254 254 
210 254 254 
200 254 254 
188 254 254 
196 254 254 
238 254 254 
254 250 254 
254 250 254 
254 244 244 
250 250 250 
236 236 236 
10 10 10 
0 0 0 
0 0 0 
0 0 0 
2 2 2 
14 14 14 
0 0 0 
0 0 0 
0 0 0 
0 0 0 
14 14 14 
240 240 240 
254 254 254 
254 254 250 
250 254 244 
250 254 244 
248 254 248 
238 252 252 
230 254 254 
224 254 254 
226 254 254 
220 254 254 
230 254 254 
228 254 254 
226 254 254 
230 254 254 
240 254 254 
244 254 254 
240 254 254 
232 254 254 
218 254 254 
212 254 254 
246 254 254 
248 242 252 
254 246 254 
254 248 250 
248 248 248 
254 254 254 
228 228 228 
254 254 254 
254 254 254 
254 254 254 
246 246 246 
246 246 246 
254 254 254 
244 244 244 
254 254 254 
254 254 254 
246 246 246 
254 254 254 
246 246 246 
234 236 232 
248 254 250 
246 254 248 
254 254 254 
252 254 254 
250 254 254 
250 254 254 
250 254 254 
250 254 254 
246 254 250 
244 254 246 
242 254 246 
244 254 248 
248 252 252 
250 252 254 
252 250 254 
248 252 254 
244 254 254 
244 254 254 
252 254 254 
254 252 254 
254 252 254 
254 252 254 
246 246 246 
254 254 254 
252 252 252 
254 254 254 
250 250 250 
250 250 250 
250 250 250 
254 254 254 
254 254 254 
246 246 246 
254 254 254 
246 246 246 
254 254 254 
234 234 234 
254 254 254 
254 254 254 
250 254 254 
250 254 254 
254 252 254 
254 250 254 
254 238 254 
254 244 254 
254 248 254 
254 250 250 
254 254 244 
254 254 240 
252 254 240 
250 254 244 
248 254 250 
250 254 254 
254 254 254 
254 252 254 
254 250 246 
254 252 244 
254 250 248 
254 254 254 
254 254 254 
252 254 254 
254 254 254 
242 242 244 
254 254 250 
252 252 248 
254 254 254 
254 254 254 
252 254 250 
250 254 250 
246 252 254 
252 254 254 
250 250 254 
254 254 254 
254 254 252 
250 250 248 
252 254 254 
232 236 240 
254 254 254 
252 248 254 
254 246 254 
254 246 254 
254 234 252 
254 244 254 
254 246 252 
254 246 244 
254 254 244 
254 254 240 
252 254 242 
248 254 244 
248 254 250 
248 254 252 
254 254 254 
254 252 254 
254 248 246 
254 252 246 
250 246 244 
252 252 254 
254 254 254 
252 254 254 
244 250 254 
252 254 254 
254 252 240 
254 252 242 
254 252 254 
248 248 252 
246 254 242 
242 254 244 
242 254 254 
244 254 254 
252 254 254 
254 252 254 
254 252 248 
252 254 248 
248 254 254 
250 254 254 
254 250 254 
254 240 254 
254 246 254 
254 238 254 
254 232 248 
254 246 254 
254 248 254 
254 252 252 
250 254 250 
244 254 250 
242 254 250 
242 254 250 
244 254 252 
248 254 254 
254 254 254 
254 252 254 
254 254 254 
240 244 248 
254 254 254 
244 242 248 
254 252 254 
250 248 254 
248 254 254 
252 254 254 
254 254 236 
254 254 236 
254 250 254 
252 248 254 
246 254 242 
240 254 244 
234 250 254 
242 250 254 
252 248 254 
254 248 252 
254 250 242 
254 254 244 
248 254 254 
246 254 254 
254 252 254 
250 236 248 
254 246 254 
254 248 254 
254 248 254 
254 250 254 
248 244 244 
248 250 248 
248 254 254 
244 254 254 
242 254 254 
244 254 254 
248 254 254 
252 254 254 
254 252 254 
254 252 254 
246 254 254 
242 252 254 
250 254 254 
252 252 254 
254 254 254 
254 252 254 
242 246 254 
254 254 250 
254 246 216 
254 250 220 
254 248 250 
254 246 252 
254 254 248 
252 254 254 
252 252 254 
254 248 254 
254 248 254 
254 248 252 
254 252 240 
254 254 240 
250 254 252 
244 254 254 
244 254 254 
246 254 254 
248 254 254 
246 254 254 
248 254 254 
248 254 254 
242 252 248 
248 254 252 
246 254 250 
246 254 252 
246 254 252 
248 252 254 
252 250 254 
254 248 254 
254 246 254 
254 248 254 
250 254 254 
242 252 252 
248 254 254 
246 250 252 
250 252 254 
254 254 254 
254 254 254 
254 254 236 
254 254 192 
254 254 178 
254 254 198 
254 254 204 
254 254 196 
254 254 204 
254 252 218 
254 254 226 
254 250 208 
254 246 196 
254 250 200 
254 254 220 
254 254 246 
244 254 254 
236 254 252 
240 254 254 
240 254 254 
230 252 244 
234 254 248 
242 254 252 
244 254 248 
248 254 250 
254 254 250 
254 254 250 
254 252 252 
254 252 254 
254 252 254 
254 250 254 
254 250 254 
254 252 254 
254 254 254 
252 254 248 
254 254 252 
254 254 252 
254 254 252 
244 246 242 
250 248 246 
254 252 212 
240 232 114 
242 230 70 
250 232 68 
240 228 52 
238 234 48 
232 234 48 
238 238 66 
244 240 76 
250 236 70 
246 232 80 
252 238 116 
254 252 174 
254 254 232 
250 254 254 
246 254 254 
244 254 252 
238 254 250 
236 254 248 
240 254 250 
242 254 250 
244 254 244 
240 242 234 
254 254 248 
254 250 248 
254 250 250 
254 250 250 
254 252 250 
254 254 252 
252 254 254 
254 254 252 
254 242 236 
252 236 228 
254 252 246 
250 248 240 
254 254 250 
236 240 234 
254 254 254 
254 254 210 
246 238 92 
248 236 30 
254 242 18 
254 238 0 
252 246 0 
246 244 0 
242 238 0 
248 242 8 
248 236 4 
242 228 22 
250 236 78 
254 252 156 
254 254 230 
254 254 254 
254 254 254 
244 250 246 
242 254 248 
244 254 250 
242 254 248 
236 246 236 
254 254 244 
254 250 242 
254 244 242 
254 240 242 
254 238 242 
254 240 242 
254 244 242 
254 246 244 
254 252 244 
254 250 242 
254 242 236 
254 242 236 
254 246 240 
254 244 236 
254 254 248 
246 248 242 
254 250 254 
254 250 208 
238 230 78 
244 232 14 
254 240 6 
254 238 0 
254 244 0 
254 242 0 
254 246 6 
254 248 12 
254 242 6 
252 232 22 
254 238 82 
254 254 164 
254 254 240 
254 248 254 
254 248 254 
254 246 252 
254 252 252 
254 254 250 
244 240 234 
254 238 232 
254 246 240 
254 214 212 
254 230 236 
254 224 234 
254 222 232 
254 222 230 
254 228 230 
254 232 230 
254 238 230 
254 238 228 
254 222 220 
254 228 228 
254 216 212 
254 244 238 
254 252 246 
254 254 248 
254 252 254 
254 254 208 
242 238 68 
248 238 6 
254 244 0 
254 238 0 
254 240 0 
254 234 0 
254 232 4 
254 238 8 
254 236 0 
250 230 14 
254 238 78 
254 254 160 
254 254 236 
250 248 254 
254 250 254 
254 250 254 
254 248 250 
254 252 250 
254 246 240 
254 246 242 
254 222 220 
160 78 82 
170 54 62 
186 46 60 
196 42 56 
198 42 54 
190 46 52 
180 50 50 
170 56 48 
168 58 50 
176 52 56 
180 64 72 
164 78 78 
254 228 226 
254 246 242 
254 254 248 
252 254 244 
254 254 192 
236 238 50 
252 246 0 
254 236 0 
254 238 0 
254 234 4 
254 236 16 
254 236 24 
254 234 18 
254 236 4 
254 238 22 
242 230 62 
254 254 156 
254 254 220 
248 254 254 
248 254 254 
244 252 254 
246 254 254 
248 254 252 
254 254 248 
254 248 240 
254 236 236 
156 54 58 
188 46 58 
208 36 50 
224 30 46 
232 26 42 
226 30 40 
222 32 36 
212 38 34 
206 40 40 
204 40 52 
192 44 60 
168 58 68 
254 232 236 
254 246 242 
254 250 244 
250 254 246 
254 254 190 
234 240 46 
250 248 0 
254 238 0 
254 240 0 
254 234 6 
254 236 18 
254 236 26 
254 234 18 
254 238 4 
254 238 22 
242 230 64 
254 254 158 
254 254 220 
246 254 254 
242 254 254 
244 254 254 
246 254 254 
246 250 246 
254 248 244 
254 238 236 
254 232 234 
178 64 70 
200 46 58 
222 34 52 
240 26 44 
246 24 42 
246 24 38 
242 28 34 
236 32 32 
228 34 40 
222 42 58 
198 42 64 
164 44 56 
254 230 236 
254 238 238 
254 250 246 
248 254 254 
254 254 208 
234 240 54 
248 248 0 
252 238 0 
254 240 0 
254 238 2 
254 238 8 
254 240 12 
254 236 6 
254 240 2 
254 240 26 
242 228 76 
254 254 174 
254 254 236 
248 254 254 
252 252 254 
254 252 254 
254 252 254 
254 240 246 
254 244 250 
254 238 242 
254 218 226 
162 42 52 
196 40 54 
216 32 48 
230 26 42 
238 22 38 
238 22 36 
238 24 34 
232 26 32 
222 30 38 
206 34 52 
188 42 64 
160 46 60 
254 230 236 
254 242 242 
254 250 246 
250 254 254 
254 254 210 
234 240 56 
248 248 0 
252 238 0 
254 242 0 
252 240 0 
252 242 4 
254 242 2 
250 240 0 
254 240 0 
254 238 28 
242 226 82 
254 254 180 
254 254 236 
248 254 254 
250 254 254 
254 254 254 
252 250 254 
254 246 250 
254 246 250 
254 242 244 
254 226 228 
180 90 94 
172 56 64 
186 50 58 
196 46 52 
200 44 50 
202 44 48 
200 44 48 
198 46 46 
192 48 50 
182 48 62 
180 62 80 
168 76 86 
254 222 226 
254 238 238 
254 250 246 
254 254 254 
254 254 202 
236 238 50 
248 248 0 
252 238 0 
254 242 0 
250 240 0 
252 242 0 
252 244 0 
250 242 0 
254 242 0 
254 238 28 
242 226 82 
254 254 174 
254 254 224 
244 254 250 
236 254 254 
234 254 254 
238 254 254 
242 254 252 
242 254 246 
244 246 236 
254 252 242 
242 222 212 
254 246 234 
254 244 230 
254 242 228 
254 240 228 
254 240 226 
254 242 226 
254 242 226 
254 240 228 
254 232 234 
254 228 236 
254 216 222 
254 242 242 
254 248 244 
254 242 238 
254 254 254 
254 254 200 
238 238 48 
250 248 0 
252 238 0 
254 240 0 
250 240 0 
250 244 0 
250 246 0 
250 242 0 
254 242 0 
254 238 30 
242 226 86 
254 254 176 
254 254 220 
246 254 246 
236 254 252 
234 254 254 
236 254 252 
240 254 252 
244 254 250 
238 248 240 
250 254 246 
252 254 244 
252 254 244 
252 254 244 
252 254 244 
252 254 244 
254 254 246 
254 254 246 
254 254 246 
254 254 246 
254 250 246 
254 248 246 
254 248 246 
254 242 238 
254 250 246 
254 240 236 
254 250 254 
254 254 204 
240 236 54 
252 246 4 
254 236 2 
254 240 6 
250 240 2 
250 244 0 
250 246 0 
250 242 0 
254 240 2 
254 236 36 
244 224 92 
254 254 184 
254 254 222 
254 254 246 
248 254 250 
250 254 252 
248 246 244 
254 252 250 
254 250 250 
254 250 250 
254 248 248 
254 244 242 
254 252 250 
252 252 252 
252 252 254 
252 252 254 
252 252 254 
254 250 254 
254 248 254 
254 250 254 
234 252 246 
240 254 250 
248 254 250 
252 254 246 
254 254 246 
254 248 242 
254 252 250 
254 254 206 
236 232 82 
246 240 40 
246 234 34 
250 238 34 
244 238 26 
244 242 22 
246 244 20 
242 240 18 
248 238 32 
248 234 64 
238 222 110 
254 254 192 
254 254 224 
254 254 242 
250 250 244 
254 254 250 
254 250 252 
254 246 248 
254 244 250 
254 244 248 
254 246 250 
254 250 254 
254 252 254 
254 254 254 
254 254 254 
254 254 254 
254 252 254 
254 250 254 
254 248 254 
254 252 254 
236 254 254 
232 254 252 
232 254 242 
246 254 248 
254 254 248 
254 254 248 
254 254 226 
250 250 196 
240 242 144 
232 234 110 
232 232 94 
234 234 84 
234 236 72 
232 234 66 
232 234 66 
230 234 72 
232 232 86 
234 234 112 
240 238 152 
248 246 188 
254 254 220 
254 254 236 
254 254 248 
254 254 252 
254 254 254 
254 252 252 
254 252 254 
254 252 254 
254 252 254 
254 254 254 
254 254 254 
254 254 254 
254 254 254 
254 254 254 
254 254 254 
254 254 254 
254 252 254 
254 254 254 
248 254 254 
248 254 254 
250 254 252 
252 254 252 
254 254 252 
254 254 252 
254 254 226 
254 254 220 
254 254 206 
254 254 192 
254 254 182 
254 254 170 
254 254 160 
254 254 156 
254 254 158 
254 254 164 
254 254 176 
254 254 190 
254 254 208 
254 254 222 
254 254 234 
254 254 244 
254 254 250 
254 254 254 
254 254 254 
254 254 254 
254 254 254 
254 254 254 
254 254 254 
254 254 254 
254 254 254 
254 254 254 
254 254 254 
254 254 254 
254 254 254 
254 254 254 
254 254 254 
254 254 254 
254 254 254 
254 254 254 
254 254 254 
254 254 254 
254 254 254 
254 254 254 
254 254 250 
254 254 244 
254 252 234 
254 254 230 
254 254 222 
254 254 216 
254 254 210 
254 254 208 
254 254 208 
254 254 212 
254 254 220 
254 254 232 
254 254 242 
254 252 250 
254 250 254 
252 250 254 
254 254 254 
254 254 254 
254 254 254 
254 254 254 
254 254 254 
254 254 254 
254 254 254 
254 254 254 
254 254 254 
254 254 254 
254 254 254 
254 254 254 
254 254 254 
254 254 254 
254 254 254 
254 254 254 
254 254 254 
254 254 254 
254 254 254 
254 254 254 
254 254 254 
254 254 254 
254 252 254 
254 254 254 
254 254 252 
254 254 248 
254 254 244 
254 254 238 
254 252 232 
254 248 228 
254 248 228 
254 250 234 
254 250 240 
254 254 250 
254 252 254 
254 252 254 
254 250 254 
254 250 254 
254 254 254 
254 254 254 
254 254 254 
254 254 254 
254 254 254 
254 254 254 
254 254 254 
254 254 254 
254 254 254 
254 254 254 
254 254 254 
254 254 254 
254 254 254 
254 254 254 
254 254 254 
254 254 254 
254 254 254 
254 254 254 
254 254 254 
254 254 254 
254 254 254 
254 254 254 
